<svg version="1.1" id="Layer_1" xmlns="http://www.w3.org/2000/svg" xmlns:xlink="http://www.w3.org/1999/xlink" x="0px" y="0px"
	 width="100%" viewBox="0 0 1024 1024" enable-background="new 0 0 1024 1024" xml:space="preserve">
<path fill="#7D0A0A" opacity="1.000000" stroke="none" 
	d="
M660.362793,383.999939 
	C660.373352,427.493073 660.400208,470.486206 660.383667,513.479309 
	C660.371216,545.794861 660.232361,578.110596 660.345642,610.425598 
	C660.360474,614.658569 658.870422,617.001831 655.260559,619.116028 
	C611.133362,644.960327 567.096924,670.959473 523.037659,696.919678 
	C522.607056,697.173340 522.153625,697.403503 521.767212,697.714661 
	C515.945801,702.401672 510.753326,701.751038 504.238159,697.852661 
	C460.638947,671.765259 416.802948,646.071594 372.905975,620.486511 
	C367.681030,617.441284 365.591248,614.117371 365.608368,607.888855 
	C365.834412,525.735657 365.756012,443.581696 365.757477,361.427917 
	C365.757599,355.558350 366.318756,349.789215 368.902100,344.391785 
	C375.435699,330.740906 386.477112,324.573700 401.388123,324.588806 
	C449.214020,324.637268 497.039978,324.622375 544.865906,324.635773 
	C572.361572,324.643433 599.857727,324.570740 627.352844,324.701569 
	C645.094604,324.786041 659.704224,339.181671 660.226868,357.007080 
	C660.485657,365.831726 660.329102,374.668610 660.362793,383.999939 
M550.942993,478.527130 
	C556.235413,464.524261 562.151672,450.759125 566.826294,436.520294 
	C571.574768,422.056793 573.538025,407.285034 570.631836,392.268280 
	C567.989807,378.616608 561.833313,367.184601 546.903625,363.826111 
	C536.402832,361.463989 526.227295,363.658508 517.141785,369.249298 
	C480.322754,391.906250 459.792816,425.387695 453.657898,467.693024 
	C451.352570,483.589996 453.225464,499.079681 463.523010,512.793396 
	C478.412354,532.622070 492.667877,552.926453 507.226196,573.004395 
	C508.357788,574.565063 509.272980,576.847412 511.652679,576.514038 
	C514.040466,576.179626 514.215820,573.727417 514.914368,571.919189 
	C526.845947,541.033142 538.763855,510.141907 550.942993,478.527130 
M582.920837,626.371338 
	C589.587708,622.444031 596.254578,618.516724 603.403137,614.305603 
	C601.950317,613.318054 601.180664,612.726562 600.349548,612.240173 
	C587.705811,604.840027 575.023621,597.505005 562.418945,590.039062 
	C557.318726,587.018188 557.272522,584.904846 562.190063,581.790833 
	C567.110535,578.674988 572.174683,575.784302 577.198059,572.832947 
	C585.473389,567.971008 593.766663,563.139648 602.334351,558.130554 
	C601.487671,557.206055 601.143066,556.603638 600.623901,556.296082 
	C588.306641,548.998169 575.955200,541.757812 563.652893,534.434875 
	C561.570068,533.195129 559.947632,533.854675 558.120667,534.933594 
	C549.376831,540.097290 540.609802,545.222717 531.802917,550.277893 
	C529.435364,551.636902 528.400696,553.765930 527.508423,556.154907 
	C524.014343,565.509155 520.489136,574.852234 516.900146,584.170471 
	C515.019104,589.054199 513.545959,589.526306 509.096619,586.910156 
	C503.501801,583.620544 497.966827,580.225464 492.313324,577.040466 
	C488.468994,574.874634 485.281586,572.145996 482.705444,568.520569 
	C476.148254,559.292480 469.457550,550.157898 462.721619,541.059021 
	C461.318970,539.164307 459.899200,536.096130 456.863953,537.762207 
	C446.086975,543.677856 435.406891,549.780701 425.276611,556.779724 
	C425.079712,556.915771 425.115173,557.388123 425.024994,557.778076 
	C425.865143,559.761719 427.862946,560.441833 429.532867,561.438232 
	C441.111938,568.347351 452.739288,575.175537 464.315552,582.089355 
	C468.806305,584.771423 468.821320,586.957336 464.412048,589.581177 
	C458.546295,593.071655 452.614655,596.451233 446.733154,599.915527 
	C439.054779,604.438049 431.397705,608.996826 423.326019,613.780334 
	C424.776306,615.050964 425.535034,615.949951 426.490631,616.517273 
	C438.371033,623.571472 450.299042,630.545593 462.163635,637.626160 
	C464.244781,638.868103 465.832581,638.273254 467.678284,637.186096 
	C481.017059,629.329224 494.465912,621.656433 507.717163,613.655762 
	C511.306030,611.488953 514.114441,611.332947 517.757019,613.544861 
	C530.561646,621.320679 543.603455,628.705078 556.441223,636.427551 
	C559.815613,638.457458 562.585449,638.742859 566.004333,636.478516 
	C571.272034,632.989563 576.847473,629.965088 582.920837,626.371338 
M482.811401,389.325867 
	C497.027466,373.161133 513.464417,360.447937 536.377136,356.344208 
	C530.555969,351.744354 525.321960,349.733795 519.339233,349.300171 
	C505.920380,348.327545 494.442993,353.539307 484.063110,361.069366 
	C455.252533,381.969910 438.203003,410.715149 430.576141,445.042664 
	C426.367920,463.983307 427.779541,482.549896 439.652039,499.007660 
	C455.916321,521.553345 472.272156,544.033081 488.647369,566.498352 
	C490.487396,569.022644 492.857452,571.002563 496.371490,571.285278 
	C496.856659,568.964844 495.605560,567.733093 494.669128,566.433228 
	C482.600342,549.680115 470.657776,532.833130 458.374207,516.238708 
	C450.634888,505.783356 446.918030,494.089569 446.756256,481.315704 
	C446.310242,446.090515 460.248718,416.361359 482.811401,389.325867 
M592.533264,648.985779 
	C611.609070,637.747742 630.688660,626.516235 649.753906,615.260315 
	C651.440552,614.264526 653.666199,613.519531 653.789001,611.191956 
	C654.108887,605.129822 654.252930,599.053223 653.517822,592.413635 
	C646.674683,594.980652 641.510193,598.938416 635.982727,602.185791 
	C597.375427,624.867432 558.808777,647.618469 520.244995,670.373962 
	C518.977051,671.122131 517.013794,672.016052 516.841431,673.079773 
	C515.798401,679.514587 515.585022,685.998413 517.116882,693.387268 
	C542.620483,678.369568 567.259399,663.861023 592.533264,648.985779 
M372.373657,594.084351 
	C372.271606,598.906311 372.286469,603.734558 372.026886,608.548035 
	C371.850220,611.823364 373.296967,613.665283 376.051392,615.280029 
	C417.698090,639.695374 459.286438,664.210144 500.911743,688.661987 
	C503.417664,690.134033 505.839722,691.952637 509.146973,692.433899 
	C510.368408,687.323181 509.463715,682.495422 509.900757,677.761230 
	C510.237885,674.109436 508.714661,672.011597 505.611908,670.194763 
	C462.943176,645.209839 420.339966,620.113037 377.692596,595.091553 
	C376.211334,594.222534 374.811981,592.639648 372.373657,594.084351 
M528.856689,658.305420 
	C537.353516,653.241943 545.850342,648.178406 554.325317,643.127930 
	C553.163879,640.835449 551.546082,640.191895 550.148682,639.373474 
	C539.090637,632.896240 527.935547,626.582153 516.954224,619.978516 
	C513.955627,618.175293 511.608337,618.251709 508.702789,620.021240 
	C498.753021,626.080688 488.677216,631.932861 478.666504,637.892761 
	C476.413422,639.234192 473.881989,640.216553 472.202637,642.508118 
	C473.679688,644.760315 476.001892,645.777222 478.114624,647.043335 
	C485.536987,651.491089 493.387115,655.356628 500.303711,660.483582 
	C508.977783,666.913269 516.893860,668.344971 525.222229,660.445557 
	C526.044617,659.665466 527.212891,659.250000 528.856689,658.305420 
M407.292694,605.130371 
	C409.275513,606.358032 411.275787,607.558594 413.236389,608.820740 
	C415.320343,610.162292 417.119049,610.618896 419.600861,609.089905 
	C430.521301,602.361816 441.618439,595.920959 452.620575,589.324402 
	C454.126801,588.421326 456.032501,587.813171 456.415222,585.762817 
	C455.985687,584.278198 454.910339,583.475098 453.759369,582.794678 
	C442.430359,576.097046 431.059509,569.469421 419.778229,562.692505 
	C417.514648,561.332703 415.800293,561.901489 413.804260,563.074524 
	C402.747101,569.572510 391.634430,575.976196 380.582825,582.483643 
	C379.216583,583.288086 377.493378,583.878418 376.847351,586.598877 
	C386.042206,593.496033 396.636139,598.688293 407.292694,605.130371 
M625.669250,601.108337 
	C633.881348,596.229187 642.093384,591.350037 650.918701,586.106506 
	C648.559326,584.548157 647.096619,583.483765 645.544067,582.572388 
	C634.926636,576.339844 624.211792,570.267944 613.708862,563.848999 
	C610.621948,561.962341 608.226624,561.673767 605.084045,563.589966 
	C595.141785,569.652405 585.027771,575.432495 575.034363,581.412354 
	C572.957825,582.654907 570.359802,583.247375 569.041016,585.616272 
	C569.629395,587.701477 571.462585,588.329773 572.997009,589.235779 
	C582.165833,594.649536 591.668030,599.572815 600.429199,605.578552 
	C607.012451,610.091248 612.551025,610.426758 618.649109,605.360046 
	C620.544617,603.785095 622.903320,602.767700 625.669250,601.108337 
M542.832397,522.372009 
	C541.779358,521.979797 540.815979,522.016357 540.356812,523.208801 
	C538.111938,529.038696 535.391418,534.710510 533.984863,541.115112 
	C541.157043,538.225464 550.657532,532.326721 553.227966,529.166809 
	C550.637573,525.996338 546.859985,524.561340 542.832397,522.372009 
z"/>
<path fill="#7D0A0A" opacity="1.000000" stroke="none" 
	d="
M507.083435,482.372864 
	C492.495056,486.829590 481.554443,479.542419 479.833740,464.478668 
	C477.154938,441.027191 492.356567,414.279327 511.230713,403.853302 
	C529.760620,393.617401 546.131714,403.109528 545.600830,424.393005 
	C545.002136,448.396759 528.104431,474.283691 507.083435,482.372864 
M509.131348,446.563690 
	C504.609161,453.464630 499.061768,459.359924 492.224670,464.034393 
	C486.634338,467.856476 486.711395,471.670441 492.488312,475.497040 
	C495.697174,477.622589 499.216309,478.058929 503.003326,477.085602 
	C510.953979,475.042175 516.970032,470.043060 522.143616,464.116882 
	C533.108643,451.556824 540.082092,437.320648 538.730530,420.079376 
	C538.052795,411.433685 532.941956,406.025299 526.004578,406.102814 
	C523.006287,406.136292 521.384583,407.139221 521.286377,410.427338 
	C520.898254,423.420074 516.677307,435.184967 509.131348,446.563690 
z"/>
</svg>