<svg version="1.1" id="Layer_1" xmlns="http://www.w3.org/2000/svg" xmlns:xlink="http://www.w3.org/1999/xlink" x="0px" y="0px"
     width="100%" viewBox="0 0 1024 1024" enable-background="new 0 0 1024 1024" xml:space="preserve">
<path fill="white" d="M457.255310,738.786072 C367.709290,685.277527 278.475098,631.957520 189.234787,578.647827 C177.793533,571.813049 166.378159,564.931274 154.827805,558.285034 C151.371658,556.296265 149.859055,553.751709 149.872589,549.838013 C149.939316,530.508850 149.950470,511.179077 149.848633,491.850189 C149.826355,487.620148 151.857880,485.220093 155.320557,483.156403 C207.696533,451.941589 260.011322,420.624084 312.360748,389.364624 C375.580688,351.613983 438.916504,314.055420 501.933289,275.968842 C510.190186,270.978485 516.016846,271.024139 524.318176,276.027069 C611.063904,328.305542 698.085754,380.125763 785.044617,432.050354 C813.503967,449.043915 841.973328,466.021240 870.516541,482.873077 C874.535034,485.245575 876.381958,488.061951 876.323303,492.883392 C876.094116,511.710114 876.130493,530.542114 876.297119,549.370117 C876.334229,553.554321 874.853577,556.044067 871.257996,558.188049 C776.684814,614.578613 682.169006,671.065552 587.643494,727.536072 C564.619141,741.291138 541.548767,754.970093 518.614380,768.873413 C514.541809,771.342163 511.410828,771.423157 507.250336,768.846863 C490.822540,758.674316 474.148193,748.899963 457.255310,738.786072 Z"/>
<path fill="#7D0A0A" opacity="1.000000" stroke="none" 
    d="
M457.255310,738.786072 
    C367.709290,685.277527 278.475098,631.957520 189.234787,578.647827 
    C177.793533,571.813049 166.378159,564.931274 154.827805,558.285034 
    C151.371658,556.296265 149.859055,553.751709 149.872589,549.838013 
    C149.939316,530.508850 149.950470,511.179077 149.848633,491.850189 
    C149.826355,487.620148 151.857880,485.220093 155.320557,483.156403 
    C207.696533,451.941589 260.011322,420.624084 312.360748,389.364624 
    C375.580688,351.613983 438.916504,314.055420 501.933289,275.968842 
    C510.190186,270.978485 516.016846,271.024139 524.318176,276.027069 
    C611.063904,328.305542 698.085754,380.125763 785.044617,432.050354 
    C813.503967,449.043915 841.973328,466.021240 870.516541,482.873077 
    C874.535034,485.245575 876.381958,488.061951 876.323303,492.883392 
    C876.094116,511.710114 876.130493,530.542114 876.297119,549.370117 
    C876.334229,553.554321 874.853577,556.044067 871.257996,558.188049 
    C776.684814,614.578613 682.169006,671.065552 587.643494,727.536072 
    C564.619141,741.291138 541.548767,754.970093 518.614380,768.873413 
    C514.541809,771.342163 511.410828,771.423157 507.250336,768.846863 
    C490.822540,758.674316 474.148193,748.899963 457.255310,738.786072 
M641.564575,621.019165 
    C675.165710,600.938599 708.766846,580.858032 742.974487,560.414917 
    C740.896423,558.931030 739.999146,558.191406 739.012817,557.600403 
    C717.007019,544.414795 694.991272,531.245667 672.977600,518.073181 
    C660.112244,510.374817 647.216492,502.726685 634.395996,494.954376 
    C628.745361,491.528778 628.372925,486.214630 633.331543,483.254730 
    C668.516846,462.251526 703.693420,441.233765 738.855896,420.192230 
    C740.075256,419.462524 741.713806,419.082825 742.052490,417.272034 
    C741.397583,415.550385 739.715210,414.985901 738.330750,414.159424 
    C704.431213,393.923737 670.486694,373.763031 636.645203,353.430756 
    C633.443298,351.507050 631.149536,351.722595 628.083313,353.574738 
    C608.551453,365.373352 588.896667,376.968353 569.302063,388.663391 
    C553.282837,398.224426 537.038513,407.444275 521.426819,417.631805 
    C516.096985,421.109802 512.520508,422.356689 506.699951,418.818451 
    C470.690887,396.929260 434.420288,375.470703 398.329926,353.714233 
    C394.815460,351.595551 392.260132,351.827667 388.854034,353.872772 
    C355.152466,374.108337 321.348694,394.173676 287.594604,414.321991 
    C286.257965,415.119812 284.389496,415.431152 283.947571,417.649384 
    C285.118591,418.478333 286.276062,419.416016 287.540527,420.175598 
    C321.667053,440.675201 355.803192,461.158813 389.940918,481.639771 
    C400.731598,488.113678 400.877930,489.303680 390.197784,495.775879 
    C364.270813,511.487762 338.216339,526.989197 312.218323,542.583923 
    C302.715973,548.283752 293.227905,554.007446 283.328339,559.963989 
    C284.849091,561.143860 285.688477,561.945068 286.659332,562.526794 
    C320.951202,583.074951 355.284058,603.555054 389.512756,624.207825 
    C392.848907,626.220642 395.210480,626.099060 398.506256,624.105957 
    C434.709259,602.211792 471.015076,580.487732 507.297791,558.725525 
    C512.617615,555.534668 516.508789,555.935364 521.236572,559.966064 
    C522.494934,561.038879 523.894348,561.972107 525.316650,562.822937 
    C557.908630,582.319641 590.669495,601.541931 622.987305,621.482300 
    C629.766235,625.664917 634.963745,626.745850 641.564575,621.019165 
M402.463135,642.090881 
    C321.519257,593.587585 240.575378,545.084290 159.723862,496.636322 
    C157.894836,498.755676 158.429962,500.499146 158.424988,502.091522 
    C158.380295,516.421997 158.535538,530.754761 158.318924,545.082031 
    C158.260101,548.972656 159.715240,551.066284 162.964645,552.979553 
    C184.352859,565.573120 205.633850,578.348877 226.940277,591.081177 
    C318.885925,646.026062 410.826172,700.980042 502.788544,755.896912 
    C504.401886,756.860291 505.877350,758.511902 508.445984,757.821228 
    C508.522064,756.363708 508.663239,754.897766 508.665039,753.431702 
    C508.682190,739.434265 508.479095,725.432434 508.789795,711.441895 
    C508.889709,706.943542 507.226013,704.615906 503.498657,702.406738 
    C469.965179,682.531799 436.545471,662.464966 402.463135,642.090881 
M828.218689,573.686523 
    C839.794861,566.760498 851.380554,559.850281 862.938965,552.894775 
    C865.184387,551.543518 867.646240,550.426880 867.626404,547.048157 
    C867.531433,530.889954 867.555420,514.731079 867.504211,498.572540 
    C867.502869,498.145721 867.125488,497.720123 866.708801,496.841034 
    C865.035645,497.723572 863.426819,498.483215 861.905457,499.389648 
    C854.752258,503.651825 847.627991,507.962341 840.484741,512.241211 
    C767.477661,555.972961 694.474304,599.710693 621.458313,643.427368 
    C588.165161,663.360901 554.857605,683.270508 521.516174,703.123169 
    C518.897034,704.682678 517.211243,706.231506 517.251526,709.672119 
    C517.427002,724.663879 517.318726,739.658752 517.345764,754.652466 
    C517.347717,755.762451 517.006470,757.015503 518.867737,758.533997 
    C621.589294,697.155762 724.592224,635.609375 828.218689,573.686523 
M377.380951,484.158508 
    C344.359253,464.388428 311.318726,444.649628 278.348572,424.793976 
    C275.444183,423.044891 273.217316,422.808655 270.184113,424.631439 
    C236.484009,444.883301 202.695724,464.988434 168.951492,485.167084 
    C167.444092,486.068512 165.509140,486.579865 164.902878,488.611664 
    C165.499664,490.427551 167.193069,490.978851 168.580017,491.810333 
    C202.302780,512.027100 236.064468,532.179138 269.731476,552.488220 
    C273.006439,554.463806 275.405090,554.572327 278.762360,552.541870 
    C305.564301,536.332092 332.500122,520.343811 359.383850,504.269104 
    C367.630463,499.338165 375.842529,494.349304 384.143738,489.342743 
    C382.573853,486.532776 379.916382,486.012543 377.380951,484.158508 
M827.923889,467.633575 
    C804.604004,453.726929 781.243896,439.886749 758.001526,425.851746 
    C753.861755,423.351898 750.541870,422.965240 746.141602,425.635651 
    C712.962402,445.771393 679.621460,465.640472 646.359985,485.641052 
    C644.879700,486.531158 642.956116,487.029480 642.174194,489.128754 
    C642.863464,489.633270 643.484375,490.168579 644.177368,490.583496 
    C678.906860,511.375336 713.654968,532.136230 748.352844,552.980713 
    C750.987000,554.563110 753.027344,554.460999 755.657715,552.881165 
    C784.790588,535.383911 814.001648,518.016968 843.173096,500.583893 
    C849.499207,496.803406 855.751709,492.899933 862.800842,488.586395 
    C850.779724,481.366364 839.663635,474.689880 827.923889,467.633575 
M448.725922,373.702728 
    C468.448059,385.495819 488.233978,397.184570 507.837341,409.171906 
    C511.659912,411.509399 514.462830,411.420380 518.240356,409.137268 
    C545.174561,392.858582 572.247192,376.809082 599.264404,360.667664 
    C607.212524,355.919067 615.124207,351.109406 623.383118,346.128357 
    C622.335876,345.222321 621.901672,344.720093 621.360535,344.396637 
    C586.344360,323.465027 551.306458,302.569458 516.320435,281.587616 
    C513.593140,279.951996 511.479553,280.442108 508.968750,281.951630 
    C475.719666,301.941132 442.424072,321.853210 409.164490,341.825287 
    C407.238159,342.982056 404.943970,343.804718 403.615662,346.670685 
    C418.472198,355.577332 433.283844,364.457092 448.725922,373.702728 
M572.801941,662.262024 
    C589.415833,652.315735 606.029663,642.369446 623.174194,632.105408 
    C621.370239,630.727600 620.522644,629.940125 619.551636,629.358948 
    C585.837402,609.181580 552.074402,589.084961 518.437012,568.780334 
    C514.502258,566.405212 511.578674,566.324280 507.593109,568.730164 
    C474.098846,588.949097 440.467407,608.940857 406.894623,629.029968 
    C405.680328,629.756592 404.051117,630.184143 403.823486,631.990479 
    C404.485382,633.530090 405.968475,634.059753 407.218597,634.808960 
    C440.917145,655.005066 474.658142,675.130676 508.292023,695.433838 
    C511.797821,697.550110 514.386719,697.394958 517.796692,695.314270 
    C535.848145,684.299316 554.040894,673.515991 572.801941,662.262024 
z"/>
</svg>