<svg version="1.1" id="Layer_1" xmlns="http://www.w3.org/2000/svg" xmlns:xlink="http://www.w3.org/1999/xlink" x="0px" y="0px"
     width="100%" viewBox="0 0 1024 1024" enable-background="new 0 0 1024 1024" xml:space="preserve">
<path fill="white" fill-rule="evenodd" d="M603.554199,551.441284 C582.310791,607.739563 561.205200,663.674438 540.117310,719.616028 C536.868530,728.234314 535.365723,728.957581 527.456299,724.462402 C515.288757,717.547302 503.256409,710.394531 491.151062,703.369507 C488.946960,702.090393 487.152191,700.446838 485.679321,698.356445 C457.557587,658.444885 429.422058,618.543030 401.270447,578.652527 C382.684479,552.316406 376.530090,522.960205 380.531921,491.344879 C387.812714,433.825317 413.306702,385.209961 454.072296,344.538635 C471.700775,326.950928 492.056213,313.133667 516.381409,306.056213 C537.805664,299.822784 558.151855,301.767975 577.329041,313.690308 C587.940430,320.287292 598.778870,326.518738 609.395081,333.108215 C628.950378,345.246094 638.042175,364.093414 642.239441,385.759186 C648.493225,418.040283 642.452087,448.972870 631.093018,479.182983 C622.066956,503.188385 612.837097,527.117188 603.554199,551.441284 z M535.707336,435.259186 C537.552795,426.769165 539.562195,418.290009 538.040466,409.291687 C506.931458,421.321228 481.535065,475.947632 487.492004,499.405640 C488.737427,498.902008 490.027557,498.536133 491.157532,497.890076 C493.321869,496.652588 495.525116,495.423126 497.486053,493.899261 C516.728516,478.945587 528.800659,459.245422 535.707336,435.259186 z"/>
<path fill="#7D0A0A" opacity="1.000000" stroke="none" 
    d="
M603.554199,551.441284 
    C582.310791,607.739563 561.205200,663.674438 540.117310,719.616028 
    C536.868530,728.234314 535.365723,728.957581 527.456299,724.462402 
    C515.288757,717.547302 503.256409,710.394531 491.151062,703.369507 
    C488.946960,702.090393 487.152191,700.446838 485.679321,698.356445 
    C457.557587,658.444885 429.422058,618.543030 401.270447,578.652527 
    C382.684479,552.316406 376.530090,522.960205 380.531921,491.344879 
    C387.812714,433.825317 413.306702,385.209961 454.072296,344.538635 
    C471.700775,326.950928 492.056213,313.133667 516.381409,306.056213 
    C537.805664,299.822784 558.151855,301.767975 577.329041,313.690308 
    C587.940430,320.287292 598.778870,326.518738 609.395081,333.108215 
    C628.950378,345.246094 638.042175,364.093414 642.239441,385.759186 
    C648.493225,418.040283 642.452087,448.972870 631.093018,479.182983 
    C622.066956,503.188385 612.837097,527.117188 603.554199,551.441284 
M561.609314,636.183167 
    C577.714722,593.682190 593.940979,551.226440 609.880554,508.663330 
    C619.550171,482.842529 630.842285,457.546875 634.271057,429.717133 
    C636.589600,410.898621 635.732422,392.487091 629.637695,374.541290 
    C622.828796,354.492493 610.394165,339.862427 588.545288,335.878326 
    C575.484924,333.496826 562.691650,335.654755 550.358521,340.502045 
    C523.408325,351.094360 501.996979,369.109192 484.049255,391.271057 
    C453.619507,428.845673 433.474426,471.071198 429.725159,519.874146 
    C427.827820,544.570862 431.426819,568.404785 446.109802,589.413879 
    C468.150269,620.950439 490.168304,652.502747 512.208374,684.039612 
    C518.757202,693.410217 525.347961,702.751648 532.535156,712.982910 
    C542.403748,686.930786 551.876892,661.922485 561.609314,636.183167 
M575.021484,323.216003 
    C565.839478,317.677246 556.411255,313.031982 545.391113,312.175079 
    C529.371399,310.929382 514.687439,315.227295 500.687958,322.333252 
    C473.156738,336.307770 451.586487,357.147919 434.082947,382.189392 
    C408.566345,418.694794 391.178375,458.380035 389.038544,503.626099 
    C387.826080,529.262756 394.240906,552.724304 409.105835,573.792114 
    C434.457153,609.721985 460.178375,645.402893 484.835571,681.803833 
    C493.042328,693.919312 504.232605,700.766296 517.355896,707.813477 
    C515.834961,705.493896 514.982910,704.112732 514.052124,702.786804 
    C492.710419,672.383667 471.310486,642.021362 450.036316,611.571106 
    C441.753540,599.715698 432.614380,588.367310 427.569550,574.520447 
    C417.481720,546.831604 418.084503,518.701111 424.382141,490.459229 
    C431.804016,457.175781 446.081818,426.869354 465.814819,399.177338 
    C482.406311,375.893921 502.144775,355.771729 527.039185,341.195648 
    C542.582214,332.095001 559.177002,326.193420 578.398926,325.498840 
    C576.843750,324.416840 576.210632,323.976318 575.021484,323.216003 
z"/>
<path fill="#7D0A0A" opacity="1.000000" stroke="none" 
    d="
M496.771423,533.525513 
    C484.212067,527.574341 479.503357,516.672485 477.898804,504.395264 
    C473.009033,466.981689 498.331116,418.736115 531.560059,401.474030 
    C539.936035,397.122742 548.773926,394.075012 558.387573,395.368896 
    C574.727844,397.568054 585.330688,409.634064 587.358215,427.475342 
    C590.219788,452.655792 581.415222,474.567902 568.550842,495.325775 
    C559.809998,509.429840 548.516785,521.069031 533.907654,529.166199 
    C522.312073,535.593201 510.225006,539.000183 496.771423,533.525513 
M515.195068,490.692261 
    C508.411987,497.935791 500.669678,503.919128 491.723694,508.247375 
    C489.410950,509.366302 488.373688,510.546997 489.424042,513.242737 
    C492.476715,521.077454 500.250763,526.428040 508.770905,526.773193 
    C516.075317,527.069092 522.559448,524.660767 528.724121,521.251221 
    C548.412659,510.362183 560.821045,493.129852 569.891724,473.158783 
    C576.819214,457.906494 580.885193,442.088135 577.596558,425.182861 
    C575.038940,412.035034 564.464661,403.282257 552.812927,404.395599 
    C549.239075,404.737091 547.156677,405.806458 547.309509,410.215118 
    C548.391357,441.418060 536.468933,467.575745 515.195068,490.692261 
M535.707336,435.259186 
    C537.552795,426.769165 539.562195,418.290009 538.040466,409.291687 
    C506.931458,421.321228 481.535065,475.947632 487.492004,499.405640 
    C488.737427,498.902008 490.027557,498.536133 491.157532,497.890076 
    C493.321869,496.652588 495.525116,495.423126 497.486053,493.899261 
    C516.728516,478.945587 528.800659,459.245422 535.707336,435.259186 
z"/>
</svg>